<svg height="654" width="720" xmlns="http://www.w3.org/2000/svg">
<rect height="654" fill="#555" width="720"></rect>
<text fill="#7f7" font-family="Courier New" font-size="12" xml:space="preserve">
<tspan x="10" y="26">8 megabytes installed</tspan>
<tspan x="10" y="42"></tspan>
<tspan x="10" y="58">node_modules</tspan>
<tspan x="10" y="74">└─┬ short@2.6.0 </tspan>
<tspan x="10" y="90">  ├─┬ mongoose@4.0.6 </tspan>
<tspan x="10" y="106">  │ ├── async@0.9.0 </tspan>
<tspan x="10" y="122">  │ ├─┬ bson@0.3.2 </tspan>
<tspan x="10" y="138">  │ │ └─┬ bson-ext@0.1.13 </tspan>
<tspan x="10" y="154">  │ │   ├── bindings@1.2.1 </tspan>
<tspan x="10" y="170">  │ │   └── nan@2.0.9 </tspan>
<tspan x="10" y="186">  │ ├── hooks-fixed@1.0.1 </tspan>
<tspan x="10" y="202">  │ ├── kareem@1.0.1 </tspan>
<tspan x="10" y="218">  │ ├─┬ mongodb@2.0.34 </tspan>
<tspan x="10" y="234">  │ │ ├─┬ mongodb-core@1.2.0 </tspan>
<tspan x="10" y="250">  │ │ │ ├── bson@0.4.23 </tspan>
<tspan x="10" y="266">  │ │ │ └─┬ kerberos@0.0.23 </tspan>
<tspan x="10" y="282">  │ │ │   └── nan@2.5.1 </tspan>
<tspan x="10" y="298">  │ │ └─┬ readable-stream@1.0.31 </tspan>
<tspan x="10" y="314">  │ │   ├── core-util-is@1.0.2 </tspan>
<tspan x="10" y="330">  │ │   ├── inherits@2.0.3 </tspan>
<tspan x="10" y="346">  │ │   ├── isarray@0.0.1 </tspan>
<tspan x="10" y="362">  │ │   └── string_decoder@0.10.31 </tspan>
<tspan x="10" y="378">  │ ├── mpath@0.1.1 </tspan>
<tspan x="10" y="394">  │ ├── mpromise@0.5.4 </tspan>
<tspan x="10" y="410">  │ ├─┬ mquery@1.6.1 </tspan>
<tspan x="10" y="426">  │ │ ├── bluebird@2.9.26 </tspan>
<tspan x="10" y="442">  │ │ └─┬ debug@2.2.0 </tspan>
<tspan x="10" y="458">  │ │   └── ms@0.7.1 </tspan>
<tspan x="10" y="474">  │ ├── ms@0.1.0 </tspan>
<tspan x="10" y="490">  │ ├── muri@1.0.0 </tspan>
<tspan x="10" y="506">  │ ├── regexp-clone@0.0.1 </tspan>
<tspan x="10" y="522">  │ └── sliced@0.0.5 </tspan>
<tspan x="10" y="538">  ├── node-promise@0.5.8 </tspan>
<tspan x="10" y="554">  └─┬ short-id@0.1.0-1 </tspan>
<tspan x="10" y="570">    ├── merge-recursive@0.0.3 </tspan>
<tspan x="10" y="586">    └─┬ sechash@0.2.1 </tspan>
<tspan x="10" y="602">      └─┬ oath@1.0.0 </tspan>
<tspan x="10" y="618">        └─┬ simple-assert@1.0.0 </tspan>
<tspan x="10" y="634">          └── assertion-error@1.0.0</tspan>
</text>
</svg>
